<svg id="visual" viewBox="0 0 1300 200" width="1300" height="200" xmlns="http://www.w3.org/2000/svg" xmlns:xlink="http://www.w3.org/1999/xlink" version="1.1"><rect x="0" y="0" width="1300" height="200" fill="#1E2B48"></rect><path d="M0 132L54.2 120.5C108.3 109 216.7 86 325 87C433.3 88 541.7 113 650 121.2C758.3 129.3 866.7 120.7 975 114.7C1083.3 108.7 1191.7 105.3 1245.8 103.7L1300 102L1300 201L1245.8 201C1191.7 201 1083.3 201 975 201C866.7 201 758.3 201 650 201C541.7 201 433.3 201 325 201C216.7 201 108.3 201 54.2 201L0 201Z" fill="#ffffff" stroke-linecap="round" stroke-linejoin="miter"></path></svg>